<svg width="346" height="63" viewBox="0 0 346 63" fill="none" xmlns="http://www.w3.org/2000/svg">
<path d="M27.3318 15.386C30.8688 14.1284 34.8381 13.4996 39.2397 13.4996C44.1522 13.4996 47.9053 14.3642 50.4991 16.0934C53.1322 17.8226 54.4488 20.4557 54.4488 23.9927C54.4488 25.8398 54.0361 27.3725 53.2108 28.5908C52.3855 29.8091 51.0493 30.8702 49.2022 31.7741V32.1278C51.6388 32.7566 53.4073 33.7195 54.5077 35.0164C55.6474 36.3133 56.2173 38.0228 56.2173 40.145C56.2173 43.6427 55.0383 46.2365 52.6803 47.9264C50.3223 49.577 46.3137 50.4023 40.6545 50.4023H27.3318V15.386ZM44.4862 28.6498C44.9185 28.021 45.2133 27.4511 45.3705 26.9402C45.567 26.4293 45.6652 25.8005 45.6652 25.0538C45.6652 23.4818 45.1936 22.4011 44.2504 21.8116C43.3072 21.2221 41.6763 20.9273 39.3576 20.9273C38.1786 20.9273 37.0978 21.0649 36.1153 21.34V28.6498H44.4862ZM41.5977 42.9746C43.7592 42.9746 45.2722 42.6995 46.1368 42.1493C47.0014 41.5598 47.4337 40.6559 47.4337 39.4376C47.4337 38.18 47.0211 37.2958 46.1958 36.7849C45.4098 36.2347 44.0736 35.9596 42.1872 35.9596H36.1153V42.9746H41.5977ZM104.347 62.0155C101.282 62.0155 98.688 61.5242 96.5658 60.5417V58.7143C96.5658 56.1991 96.7623 53.9983 97.1553 52.1119H103.581V54.4109C104.092 54.5288 104.583 54.5878 105.055 54.5878C105.919 54.5878 106.686 54.5092 107.354 54.352C108.061 52.5835 108.69 50.8543 109.24 49.1644H105.644C103.286 43.9768 101.321 39.3394 99.7491 35.2522C98.2164 31.1257 96.8998 26.9009 95.7994 22.5779L105.055 22.1653C106.862 29.3965 108.729 35.6452 110.655 40.9114H111.834C113.327 35.6059 114.88 29.3572 116.491 22.1653L125.628 22.5779C124.017 29.2196 122.248 35.5273 120.323 41.5009C118.436 47.4745 116.53 52.6424 114.604 57.0047C114.172 57.9872 113.367 58.8518 112.188 59.5985C111.009 60.3845 109.692 60.974 108.238 61.367C106.823 61.7993 105.526 62.0155 104.347 62.0155ZM140.273 50.8739C135.832 50.8739 132.059 50.1076 128.955 48.5749L131.431 41.7956C132.845 42.3851 134.299 42.8371 135.793 43.1515C137.286 43.4659 138.681 43.6231 139.978 43.6231C141.629 43.6231 143.044 43.5248 144.223 43.3283C144.419 43.0925 144.517 42.7388 144.517 42.2672C144.517 41.7956 144.242 41.4419 143.692 41.2061C143.181 40.9703 142.022 40.6363 140.214 40.204C137.502 39.5752 135.4 38.9464 133.906 38.3176C132.413 37.6495 131.254 36.7259 130.428 35.5469C129.603 34.3679 129.19 32.737 129.19 30.6541C129.19 24.877 133.317 21.9884 141.57 21.9884C143.456 21.9884 145.323 22.1849 147.17 22.5779C149.057 22.9316 150.648 23.4032 151.945 23.9927V25.9381C151.945 26.7241 151.867 27.7655 151.709 29.0624C151.552 30.32 151.375 31.2239 151.179 31.7741H144.105L143.633 29.1214C142.847 28.9642 141.963 28.8856 140.98 28.8856C138.937 28.8856 137.915 29.534 137.915 30.8309C137.915 31.5776 138.288 32.1082 139.035 32.4226C139.782 32.737 141.197 33.1103 143.279 33.5426C145.598 34.0142 147.445 34.5448 148.821 35.1343C150.196 35.6845 151.257 36.5491 152.004 37.7281C152.79 38.8678 153.183 40.4594 153.183 42.503C153.183 45.2933 152.161 47.3959 150.118 48.8107C148.113 50.1862 144.832 50.8739 140.273 50.8739ZM176.837 13.8533H188.45L200.063 41.1472L200.535 41.0293L199.827 31.4204V13.8533H208.611V50.4023H196.998L185.385 23.1085L184.913 23.2264L185.62 32.8352V50.4023H176.837V13.8533ZM216.153 10.8469H224.996V18.7462H216.153V10.8469ZM216.212 22.5779H224.937V50.4023H216.212V22.5779ZM243.881 62.0155C241.72 62.0155 239.676 61.7993 237.751 61.367C235.825 60.9347 234.194 60.3452 232.858 59.5985L234.214 52.3477C235.589 52.9372 237.063 53.4088 238.635 53.7625C240.246 54.1162 241.838 54.293 243.41 54.293C245.021 54.293 246.259 54.2144 247.124 54.0572C248.028 53.9393 248.99 53.6839 250.012 53.2909V50.2844L250.189 46.9832H249.717C248.578 48.1229 247.399 48.9482 246.18 49.4591C245.001 49.9307 243.528 50.1665 241.759 50.1665C238.065 50.1665 235.353 49.0268 233.624 46.7474C231.934 44.4287 231.089 41.2847 231.089 37.3154C231.089 32.4029 231.973 28.6301 233.742 25.997C235.51 23.3246 238.36 21.9884 242.29 21.9884C244.294 21.9884 245.866 22.3421 247.006 23.0495C248.145 23.7569 249.187 24.7984 250.13 26.1739H250.543L250.896 22.5779H258.324V53.173C258.324 56.2384 257.027 58.4785 254.433 59.8933C251.84 61.3081 248.322 62.0155 243.881 62.0155ZM244.058 41.9725C245.355 41.9725 246.397 41.7956 247.183 41.4419C247.969 41.0882 248.774 40.4791 249.6 39.6145V32.7763C248.931 31.9903 248.165 31.4008 247.3 31.0078C246.475 30.5755 245.453 30.3593 244.235 30.3593C242.781 30.3593 241.7 30.8113 240.993 31.7152C240.325 32.6191 239.991 34.1911 239.991 36.4312C239.991 40.1254 241.347 41.9725 244.058 41.9725ZM265.606 10.8469H274.33V21.6347L274.036 26.7044H274.389C275.647 25.1717 277.062 24.0124 278.634 23.2264C280.206 22.4011 282.014 21.9884 284.057 21.9884C286.808 21.9884 288.93 22.6762 290.424 24.0517C291.917 25.4272 292.664 27.4511 292.664 30.1235V50.4023H283.939V30.8899C283.075 30.5362 281.935 30.3593 280.52 30.3593C278.005 30.3593 275.942 30.9881 274.33 32.2457V50.4023H265.606V10.8469ZM313.238 50.9918C310.88 50.9918 308.777 50.7364 306.93 50.2255C305.555 49.243 304.415 48.1819 303.511 47.0422C302.647 45.9025 302.214 44.7628 302.214 43.6231V29.8877H296.791L297.852 22.5779H302.214V15.2681H310.998V22.5779H320.135L319.074 29.8877H310.998V39.7324C310.998 40.7935 311.096 41.6777 311.293 42.3851C312.079 42.6209 312.943 42.7388 313.886 42.7388C316.048 42.7388 317.915 42.2869 319.487 41.383L320.783 49.1054C319.801 49.7342 318.72 50.2058 317.541 50.5202C316.362 50.8346 314.928 50.9918 313.238 50.9918Z" fill="white"/>
<path d="M62.4913 24.2393C59.1832 28.3745 59.0385 31.6205 62.1812 31.6205C63.5458 31.6205 63.9179 31.3311 64.6623 29.7184C65.572 27.8162 65.3446 27.7128 69.2109 31.5792L72.7258 35.094L69.2109 38.6089C65.3446 42.4753 65.572 42.3719 64.6623 40.4697C63.9179 38.857 63.5458 38.5676 62.1812 38.5676C59.7001 38.5676 59.2039 40.387 60.8373 43.4263C62.9669 47.334 67.7016 51.2417 70.4308 51.3244C71.7127 51.3658 72.7465 50.2907 72.7258 48.9467C72.7465 47.7682 72.395 47.334 70.7616 46.569C68.694 45.5766 68.6113 45.8247 72.519 41.917L76.0339 38.4021L79.6521 42.0204L83.2497 45.618L81.9885 46.3003C79.5487 47.5821 78.9285 48.9054 79.9829 50.4561C80.7066 51.5519 82.4433 51.5519 84.5729 50.4147C86.992 49.1121 90.4448 45.5766 91.644 43.1369C92.6158 41.09 92.6364 40.1182 91.644 39.1258C90.3001 37.7819 88.522 38.5262 87.3848 40.8626C87.0954 41.4828 86.7232 41.979 86.5371 41.9997C86.3717 41.9997 84.7383 40.449 82.8775 38.5469L79.5487 35.094L82.7948 31.7239C84.5729 29.9044 86.2063 28.3124 86.3924 28.209C86.6819 28.085 86.8679 28.3124 87.3228 29.2222C88.4806 31.6619 90.2794 32.4269 91.6647 31.0416C92.6364 30.0699 92.6158 29.0981 91.644 27.0512C90.4448 24.6115 86.992 21.0759 84.5729 19.7734C82.4433 18.6362 80.7066 18.6362 79.9829 19.732C78.9285 21.2827 79.5488 22.6059 81.9678 23.8672L83.2497 24.5701L79.6521 28.1677L76.0339 31.7859L72.519 28.2711C68.6113 24.3634 68.694 24.6115 70.7616 23.619C72.395 22.854 72.7465 22.4199 72.7258 21.2413C72.7465 19.8974 71.7127 18.8223 70.4308 18.8636C69.2523 18.8843 67.3915 19.794 65.7994 21.0966C65.0965 21.6755 64.3315 22.3165 64.0627 22.5026C63.7939 22.6886 63.0909 23.4743 62.4913 24.2393Z" fill="white"/>
</svg>
